<svg xmlns="http://www.w3.org/2000/svg" xml:space="preserve" width="380.721" height="380.721"><g class="layer" fill="#9bb537"><path d="M319.38 34.35H61.34c-14.92 0-27 12.1-27 27.01v258.03c0 14.9 12.08 27.01 27 27.01h70.97l2.96-57.26c0-32.24-23.83-21.91-23.83-44.47 0-12.63.38-38.97.38-58.75 0-52.69 22.38-103.67 27.88-115.04 5.53-11.37 18.54-23.77 18.68-11.83 0 17.31.74 218.61.74 218.61h-.04l2.76 68.73h61.38l5.55-107.62c-13.1-2.87-24.28-11.22-31.28-21.69-8.69-13.01 6.67-128.06 6.67-128.06h10.01v107.99h9.92V89h10.84v107.98h9.89V89h11.26v107.98h9.9V89h7.68s15.34 115.07 6.65 128.07c-6.92 10.37-18.01 18.67-30.94 21.62-.24.1-.44.18-.44.18l5.61 107.51h64.84c14.91 0 27-12.11 27-27.02V61.35c0-14.92-12.09-27-27-27z"/><path d="M341.26 0H39.46C17.7 0 0 17.7 0 39.46v301.78c0 21.77 17.7 39.48 39.46 39.48h301.78c21.77 0 39.48-17.71 39.48-39.46V39.46C380.72 17.7 363.01 0 341.26 0zm23.67 341.26c0 13.06-10.63 23.67-23.67 23.67H39.46c-13.06 0-23.67-10.62-23.67-23.67V39.46c0-13.06 10.63-23.67 23.67-23.67h301.78c13.06 0 23.68 10.62 23.68 23.67v301.8h.01z"/></g></svg>