<svg aria-hidden="true" style="position: absolute; width: 0; height: 0; overflow: hidden;" version="1.1" xmlns="http://www.w3.org/2000/svg" xmlns:xlink="http://www.w3.org/1999/xlink">
<defs>
<symbol id="icon-burger" viewBox="0 0 32 32">
<path stroke-linejoin="round" stroke-linecap="round" stroke-miterlimit="4" stroke-width="2" d="M28 13.333h-24"></path>
<path stroke-linejoin="round" stroke-linecap="round" stroke-miterlimit="4" stroke-width="2" d="M28 8h-24"></path>
<path stroke-linejoin="round" stroke-linecap="round" stroke-miterlimit="4" stroke-width="2" d="M28 18.667h-24"></path>
<path stroke-linejoin="round" stroke-linecap="round" stroke-miterlimit="4" stroke-width="2" d="M28 24h-24"></path>
</symbol>
<symbol id="icon-cart" viewBox="0 0 32 32">
<path stroke-linejoin="round" stroke-linecap="round" stroke-miterlimit="4" stroke-width="2.6667" d="M12 29.333c0.736 0 1.333-0.597 1.333-1.333s-0.597-1.333-1.333-1.333c-0.736 0-1.333 0.597-1.333 1.333s0.597 1.333 1.333 1.333z"></path>
<path stroke-linejoin="round" stroke-linecap="round" stroke-miterlimit="4" stroke-width="2.6667" d="M26.667 29.333c0.736 0 1.333-0.597 1.333-1.333s-0.597-1.333-1.333-1.333c-0.736 0-1.333 0.597-1.333 1.333s0.597 1.333 1.333 1.333z"></path>
<path stroke-linejoin="round" stroke-linecap="round" stroke-miterlimit="4" stroke-width="2.4" d="M1.333 1.333h5.333l3.573 17.853c0.122 0.614 0.456 1.165 0.943 1.558s1.098 0.601 1.723 0.589h12.96c0.626 0.012 1.236-0.197 1.723-0.589s0.821-0.944 0.943-1.558l2.133-11.187h-22.667"></path>
</symbol>
        <symbol id="icon-menu" viewBox="0 0 31 32">
            <path stroke-linecap="round" stroke-linejoin="round" stroke-width="1.939"
                d="M27.151 13.414H3.878M27.151 8.242H3.878M27.151 18.586H3.878M27.151 23.758H3.878" />
        </symbol>

        <symbol id="icon-shopping-cart" viewBox="0 0 31 32">
            <path stroke-linecap="round" stroke-linejoin="round" stroke-width="1.92"
                d="M6.4 18.56h16.814c1.296 0 1.945 0 2.461-.242a2.554 2.554 0 0 0 1.098-.983c.297-.486.369-1.131.512-2.419l.749-6.739c.044-.394.066-.59.002-.743a.641.641 0 0 0-.282-.315c-.144-.08-.342-.08-.738-.08H5.76M2.56 3.2h1.598c.339 0 .508 0 .641.064a.644.644 0 0 1 .277.26c.073.128.083.297.104.635l1.16 18.56c.021.338.032.507.104.635a.638.638 0 0 0 .277.26c.133.064.302.064.641.064H24.32M9.6 28.16h.013m11.507 0h.013m-10.893 0a.64.64 0 1 1-1.281-.001.64.64 0 0 1 1.281.001zm11.52 0a.64.64 0 1 1-1.281-.001.64.64 0 0 1 1.281.001z" />
        </symbol>
        <symbol id="icon-menu-light" viewBox="0 0 31 32">
            <path fill="none" stroke="#fff" stroke-linecap="round" stroke-linejoin="round"
                stroke-width="1.939"
                d="M27.151 13.414H3.878M27.151 8.242H3.878M27.151 18.586H3.878M27.151 23.758H3.878"
                style="stroke:var(--color1, #fff)" />
        </symbol>
        <symbol id="icon-menu-dark" viewBox="0 0 31 32">
            <path stroke-linecap="round" stroke-linejoin="round" stroke-width="1.939"
                d="M27.151 13.414H3.878M27.151 8.242H3.878M27.151 18.586H3.878M27.151 23.758H3.878" />
        </symbol>
        <symbol id="icon-shopping-cart-light" viewBox="0 0 31 32">
            <path fill="none" stroke="#fff" stroke-linecap="round" stroke-linejoin="round"
                stroke-width="1.92"
                d="M6.4 18.56h16.814c1.296 0 1.945 0 2.461-.242a2.554 2.554 0 0 0 1.098-.983c.297-.486.369-1.131.512-2.419l.749-6.739c.044-.394.066-.59.002-.743a.641.641 0 0 0-.282-.315c-.144-.08-.342-.08-.738-.08H5.76M2.56 3.2h1.598c.339 0 .508 0 .641.064a.644.644 0 0 1 .277.26c.073.128.083.297.104.635l1.16 18.56c.021.338.032.507.104.635a.638.638 0 0 0 .277.26c.133.064.302.064.641.064H24.32M9.6 28.16h.013m11.507 0h.013m-10.893 0a.64.64 0 1 1-1.281-.001.64.64 0 0 1 1.281.001zm11.52 0a.64.64 0 1 1-1.281-.001.64.64 0 0 1 1.281.001z"
                style="stroke:var(--color1, #fff)" />
        </symbol>
        <symbol id="icon-shopping-cart-dark" viewBox="0 0 31 32">
            <path stroke-linecap="round" stroke-linejoin="round" stroke-width="1.92"
                d="M6.4 18.56h16.814c1.296 0 1.945 0 2.461-.242a2.554 2.554 0 0 0 1.098-.983c.297-.486.369-1.131.512-2.419l.749-6.739c.044-.394.066-.59.002-.743a.641.641 0 0 0-.282-.315c-.144-.08-.342-.08-.738-.08H5.76M2.56 3.2h1.598c.339 0 .508 0 .641.064a.644.644 0 0 1 .277.26c.073.128.083.297.104.635l1.16 18.56c.021.338.032.507.104.635a.638.638 0 0 0 .277.26c.133.064.302.064.641.064H24.32M9.6 28.16h.013m11.507 0h.013m-10.893 0a.64.64 0 1 1-1.281-.001.64.64 0 0 1 1.281.001zm11.52 0a.64.64 0 1 1-1.281-.001.64.64 0 0 1 1.281.001z" />
        </symbol>
        <symbol id="icon-x-big-light" viewBox="0 0 32 32">
            <path fill="none" stroke="#f8f8f8" stroke-linecap="round" stroke-linejoin="round"
                stroke-width="2"
                d="M24 8 8 24M8 8l16 16" style="stroke:var(--color2, #f8f8f8)" />
        </symbol>
        <symbol id="icon-x-small-dark" viewBox="0 0 32 32">
            <path stroke-linecap="round" stroke-linejoin="round" stroke-width="2.88"
                d="M24 8 8 24M8 8l16 16" />
        </symbol>
        <symbol id="icon-switch-green" viewBox="0 0 48 32">
            <path
                d="M11.294 6.902h16.314a6.275 6.275 0 0 1 .001 12.549H11.295a6.274 6.274 0 0 1 0-12.548z"
                style="fill:var(--color3, #000)" />
            <path fill="#f3f3f3"
                d="M33.506 13.176a5.898 5.898 0 1 1-11.797-.001 5.898 5.898 0 0 1 11.797.001z"
                style="fill:var(--color4, #f3f3f3)" />
        </symbol>
        <symbol id="icon-switch-grey" viewBox="0 0 50 32">
            <path fill="#cecdcd"
                d="M13.176 6.902H29.49a6.274 6.274 0 0 1 0 12.549H13.176a6.274 6.274 0 0 1 0-12.548z"
                style="fill:var(--color5, #cecdcd)" />
            <path fill="#f8f8f8"
                d="M19.074 13.177a5.898 5.898 0 1 1-11.797-.001 5.898 5.898 0 0 1 11.797.001z"
                style="fill:var(--color2, #f8f8f8)" />
        </symbol>
        <symbol id="icon-switch-circle" viewBox="0 0 32 32">
            <path fill="#f8f8f8"
                d="M19.456 13.44c0 3.323-2.693 6.016-6.016 6.016s-6.016-2.693-6.016-6.016 2.693-6.016 6.016-6.016 6.016 2.693 6.016 6.016z"
                style="fill:var(--color2, #f8f8f8)" />
        </symbol>
        <symbol id="icon-switch-oval-green" viewBox="0 0 49 32">
            <path
                d="M11.52 6.4h16.64c3.535 0 6.4 2.865 6.4 6.4s-2.865 6.4-6.4 6.4H11.52c-3.535 0-6.4-2.865-6.4-6.4s2.865-6.4 6.4-6.4z" />
        </symbol>
        <symbol id="icon-switch-oval-grey" viewBox="0 0 49 32">
            <path fill="#cecdcd"
                d="M11.52 6.4h16.64c3.535 0 6.4 2.865 6.4 6.4s-2.865 6.4-6.4 6.4H11.52c-3.535 0-6.4-2.865-6.4-6.4s2.865-6.4 6.4-6.4z"
                style="fill:var(--color5, #cecdcd)" />
        </symbol>
<symbol id="icon-heart" viewBox="0 0 32 32">
<path d="M15.991 6.848c-2.665-3.117-7.111-3.956-10.449-1.103-3.34 2.854-3.811 7.625-1.187 11.001 2.182 2.806 8.781 8.724 10.944 10.64 0.241 0.214 0.364 0.321 0.503 0.364 0.057 0.017 0.123 0.027 0.191 0.027s0.134-0.010 0.195-0.029l-0.005 0.001c0.141-0.042 0.262-0.15 0.505-0.364 2.163-1.916 8.764-7.834 10.944-10.64 2.623-3.375 2.211-8.177-1.187-11.001-3.398-2.825-7.786-2.016-10.452 1.101z"></path>
</symbol>
<symbol id="icon-search" viewBox="0 0 32 32">
<path d="M28.948 27.054l-4.948-4.907c1.644-2.036 2.639-4.656 2.639-7.508 0-6.627-5.373-12-12-12s-12 5.373-12 12c0 6.627 5.373 12 12 12 2.852 0 5.472-0.995 7.531-2.657l-0.023 0.018 4.907 4.907c0.242 0.244 0.577 0.394 0.947 0.394s0.705-0.151 0.947-0.394l0-0c0.232-0.24 0.374-0.566 0.374-0.926s-0.143-0.687-0.375-0.927l0 0zM14.667 24c-5.155 0-9.333-4.179-9.333-9.333s4.179-9.333 9.333-9.333v0c5.155 0 9.333 4.179 9.333 9.333s-4.179 9.333-9.333 9.333v0z"></path>
</symbol>
<symbol id="icon-reset" viewBox="0 0 32 32">
<path stroke-linejoin="round" stroke-linecap="round" stroke-miterlimit="4" stroke-width="3" d="M24 8l-16 16M8 8l16 16"></path>
</symbol>
<symbol id="icon-slider-left" viewBox="0 0 32 32">
<path d="M14.133 16.947c-0.244-0.241-0.395-0.576-0.395-0.947s0.151-0.705 0.395-0.947l0-0 6.12-6.107c0.243-0.242 0.394-0.577 0.394-0.947 0-0.737-0.597-1.334-1.334-1.334-0.367 0-0.699 0.148-0.94 0.388l-6.12 6.12c-0.723 0.724-1.17 1.723-1.17 2.827s0.447 2.103 1.17 2.827l6.12 6.12c0.241 0.239 0.573 0.387 0.94 0.387 0.737 0 1.334-0.597 1.334-1.334 0-0.37-0.151-0.705-0.394-0.947l-0-0-6.12-6.107z"></path>
</symbol>
<symbol id="icon-slider-right" viewBox="0 0 32 32">
<path d="M17.867 16.947c0.244-0.241 0.396-0.576 0.396-0.947s-0.151-0.705-0.395-0.947l-0-0-6.12-6.107c-0.243-0.242-0.394-0.577-0.394-0.947 0-0.737 0.597-1.334 1.334-1.334 0.367 0 0.699 0.148 0.94 0.388l6.12 6.12c0.723 0.724 1.17 1.723 1.17 2.827s-0.447 2.103-1.17 2.827l-6.12 6.12c-0.241 0.239-0.573 0.387-0.94 0.387-0.737 0-1.334-0.597-1.334-1.334 0-0.37 0.151-0.705 0.394-0.947l0-0 6.12-6.107z"></path>
</symbol>
<symbol id="icon-slider-right-2" viewBox="0 0 34 32">
<path d="M5.261 5.261c-0.976 0.922-0.054 2.441 3.959 6.4 2.386 2.386 4.339 4.556 4.339 4.881s-1.953 2.495-4.339 4.881c-4.447 4.447-5.315 6.346-2.983 6.671 0.759 0.108 2.495-1.302 5.695-4.502 4.393-4.447 4.61-4.719 4.61-7.051s-0.217-2.603-4.61-7.051c-4.231-4.231-5.749-5.207-6.671-4.231z"></path>
<path d="M20.447 5.261c-0.976 0.922-0.054 2.441 3.959 6.4 2.386 2.386 4.339 4.556 4.339 4.881s-1.953 2.495-4.339 4.881c-4.502 4.447-5.315 6.346-2.983 6.671 0.814 0.108 2.495-1.302 5.912-4.773 4.773-4.827 4.827-4.936 4.502-7.159-0.271-1.898-0.922-2.875-4.827-6.78-4.122-4.122-5.641-5.098-6.563-4.122z"></path>
</symbol>
<symbol id="icon-slider-left-2" viewBox="0 0 34 32">
<path d="M6.292 8.678c-4.773 4.827-4.827 4.936-4.502 7.159 0.271 1.898 0.976 2.875 4.827 6.78 3.092 3.146 4.827 4.502 5.586 4.393 2.332-0.325 1.464-2.224-2.983-6.671-2.386-2.386-4.339-4.556-4.339-4.881s1.953-2.495 4.339-4.881c4.502-4.447 5.315-6.346 2.983-6.671-0.814-0.108-2.495 1.302-5.912 4.773z"></path>
<path d="M21.478 8.678c-4.773 4.827-4.827 4.936-4.502 7.159 0.271 1.898 0.976 2.875 4.827 6.78 3.092 3.146 4.827 4.502 5.586 4.393 2.332-0.325 1.464-2.224-2.983-6.671-2.386-2.386-4.339-4.556-4.339-4.881s1.953-2.495 4.339-4.881c4.502-4.447 5.315-6.346 2.983-6.671-0.814-0.108-2.495 1.302-5.912 4.773z"></path>
</symbol>
<symbol id="icon-criss-cross" viewBox="0 0 32 32">
<path d="M32 3.223l-3.223-3.223-12.777 12.777-12.777-12.777-3.223 3.223 12.777 12.777-12.777 12.777 3.223 3.223 12.777-12.777 12.777 12.777 3.223-3.223-12.777-12.777 12.777-12.777z"></path>
<symbol id="icon-facebook-small" viewBox="0 0 32 32">
      <path d="M19.52 4.64h.96v3.6h-1.2c-.48 0-.96 0-1.2.24s-.24.48-.24 1.04v1.28h2.64v3.04h-2.64v13.2h-4.08V13.76H11.6v-3.04h2.16V9.68c0-1.76.24-3.04.72-3.6.72-1.04 2.16-1.52 4.32-1.52.24.08.48.08.72.08z"/>
    </symbol>
    <symbol id="icon-instagram-small" viewBox="0 0 32 32">
      <path d="M28.717 10.756a9.264 9.264 0 0 0-.596-3.145 6.547 6.547 0 0 0-3.743-3.737 9.42 9.42 0 0 0-3.108-.596c-1.367-.061-1.801-.078-5.273-.078s-3.916 0-5.274.078a9.418 9.418 0 0 0-3.106.596 6.541 6.541 0 0 0-3.743 3.737 9.288 9.288 0 0 0-.596 3.101c-.061 1.367-.08 1.8-.08 5.265s0 3.909.08 5.265a9.34 9.34 0 0 0 .596 3.104 6.545 6.545 0 0 0 3.744 3.735 9.37 9.37 0 0 0 3.106.639c1.369.061 1.803.079 5.274.079s3.917 0 5.274-.079a9.362 9.362 0 0 0 3.108-.595 6.555 6.555 0 0 0 3.743-3.737 9.346 9.346 0 0 0 .596-3.104c.061-1.365.08-1.798.08-5.265-.003-3.466-.003-3.906-.082-5.264zM15.99 22.531c-3.631 0-6.572-2.936-6.572-6.561s2.941-6.561 6.572-6.561c3.628 0 6.572 2.936 6.572 6.561s-2.944 6.561-6.572 6.561zm6.833-11.835a1.53 1.53 0 1 1 0-3.06 1.53 1.53 0 1 1 0 3.06z"/>
      <path d="M15.992 19.976a4.004 4.004 0 1 0 0-8.009 4.004 4.004 0 0 0 0 8.009z"/>
    </symbol>
    <symbol id="icon-youtube-small" viewBox="0 0 32 32">
      <path d="M24.24 6c-1.36-.08-4.16-.16-8.4-.16h-.56c-4.08 0-6.8.08-8.16.24-1.84.16-3.12.64-3.84 1.28-.64.56-1.12 1.6-1.28 2.96-.08.88-.16 2.72-.16 5.52v.4c0 2.64.08 4.48.24 5.36.24 1.28.64 2.24 1.44 2.8.8.64 2.16 1.04 4.08 1.2 1.36.08 4.16.16 8.4.16h.56c4.08 0 6.8-.08 8.16-.24 1.84-.16 3.12-.64 3.84-1.28.64-.56 1.12-1.6 1.28-2.96.08-.88.16-2.72.16-5.52v-.4c0-2.64-.08-4.48-.24-5.36-.24-1.28-.64-2.24-1.44-2.8-.8-.64-2.16-1.04-4.08-1.2zm-3.12 9.84-8.8 5.28V10.56l8.8 5.28z"/>
    </symbol>
    <symbol id="fav-icon" viewBox="0 0 38 32">
<path fill="#9bb537" style="fill: var(--color1, #9bb537)" d="M7.172 12.69h23.172v17.655h-23.172v-17.655z"></path>
<path fill="#9bb537" style="fill: var(--color1, #9bb537)" d="M16.552 11.586c0 4.57-3.705 8.276-8.276 8.276s-8.276-3.705-8.276-8.276c0-4.57 3.705-8.276 8.276-8.276s8.276 3.705 8.276 8.276z"></path>
<path fill="#9bb537" style="fill: var(--color1, #9bb537)" d="M27.034 8.276c0 4.57-3.705 8.276-8.276 8.276s-8.276-3.705-8.276-8.276c0-4.57 3.705-8.276 8.276-8.276s8.276 3.705 8.276 8.276z"></path>
<path fill="#9bb537" style="fill: var(--color1, #9bb537)" d="M37.517 11.586c0 4.57-3.705 8.276-8.276 8.276s-8.276-3.705-8.276-8.276c0-4.57 3.705-8.276 8.276-8.276s8.276 3.705 8.276 8.276z"></path>
<path fill="#f8f8f8" style="fill: var(--color2, #f8f8f8)" d="M7.172 29.241h23.172v2.081c0 0.374-0.324 0.678-0.724 0.678h-21.724c-0.4 0-0.724-0.303-0.724-0.678v-2.081zM14.345 10.463c0-0.599 0.371-1.084 0.828-1.084s0.828 0.486 0.828 1.084v5.005c0 0.599-0.371 1.084-0.828 1.084s-0.828-0.486-0.828-1.084v-5.005zM17.103 10.463c0-0.599 0.618-1.084 1.379-1.084s1.379 0.486 1.379 1.084v5.005c0 0.599-0.618 1.084-1.379 1.084s-1.379-0.486-1.379-1.084v-5.005zM20.966 10.463c0-0.599 0.494-1.084 1.103-1.084s1.103 0.486 1.103 1.084v5.005c0 0.599-0.494 1.084-1.103 1.084s-1.103-0.486-1.103-1.084v-5.005z"></path>
<path fill="#050505" style="fill: var(--color3, #050505)" d="M28.184 3.131c0.263-0.029 0.567-0.045 0.875-0.045 0.001 0 0.002 0 0.003 0h-0c3.714 0 6.861 2.413 7.938 5.746-0.289 0.030-0.582 0.046-0.878 0.046-3.714 0-6.861-2.413-7.938-5.746z"></path>
</symbol>
</defs>
</svg>
