<svg xmlns="http://www.w3.org/2000/svg" aria-hidden="true" style="position:absolute;width:0;height:0;overflow:hidden">
  <defs>
    <symbol id="cart" viewBox="0 0 32 32">
      <path stroke-linecap="round" stroke-linejoin="round" stroke-width="2.667" d="M12 29.333a1.333 1.333 0 1 0 0-2.667 1.333 1.333 0 0 0 0 2.667zM26.667 29.333a1.333 1.333 0 1 0 0-2.667 1.333 1.333 0 0 0 0 2.667z"/>
      <path stroke-linecap="round" stroke-linejoin="round" stroke-width="2.4" d="M1.333 1.333h5.333l3.573 17.853a2.671 2.671 0 0 0 2.666 2.147h12.96a2.667 2.667 0 0 0 2.666-2.147l2.133-11.187H7.997"/>
    </symbol>
    <symbol id="burger" viewBox="0 0 32 32">
      <path stroke-linecap="round" stroke-linejoin="round" stroke-width="2" d="M28 13.333H4M28 8H4M28 18.667H4M28 24H4"/>
    </symbol>
    <symbol id="search" viewBox="0 0 32 32">
      <path d="M28.947 27.054 24 22.147a11.999 11.999 0 0 0-1.353-16.445 12 12 0 1 0-.5 18.298l4.907 4.907a1.334 1.334 0 0 0 1.894 0 1.336 1.336 0 0 0 0-1.854zm-14.28-3.053a9.33 9.33 0 0 1-8.623-5.762A9.339 9.339 0 0 1 8.067 8.067a9.331 9.331 0 0 1 10.172-2.023 9.336 9.336 0 0 1 5.762 8.623 9.333 9.333 0 0 1-9.334 9.334z"/>
    </symbol>
    <symbol id="icon-x" viewBox="0 0 32 32">
      <path fill="none" stroke-linecap="round" stroke-linejoin="round" stroke-width="1.733" d="M24 8 8 24M8 8l16 16"/>
    </symbol>
    <symbol id="icon-facebook" viewBox="0 0 32 32">
      <path d="M19.52 4.64h.96v3.6h-1.2c-.48 0-.96 0-1.2.24s-.24.48-.24 1.04v1.28h2.64v3.04h-2.64v13.2h-4.08V13.76H11.6v-3.04h2.16V9.68c0-1.76.24-3.04.72-3.6.72-1.04 2.16-1.52 4.32-1.52.24.08.48.08.72.08z"/>
    </symbol>
    <symbol id="icon-instagram" viewBox="0 0 32 32">
      <path d="M28.718 10.756a9.264 9.264 0 0 0-.596-3.145 6.547 6.547 0 0 0-3.743-3.737 9.42 9.42 0 0 0-3.108-.596c-1.368-.061-1.801-.078-5.273-.078s-3.916 0-5.274.078a9.413 9.413 0 0 0-3.106.596 6.541 6.541 0 0 0-3.743 3.737 9.288 9.288 0 0 0-.596 3.101c-.061 1.367-.08 1.8-.08 5.265s0 3.909.08 5.265a9.335 9.335 0 0 0 .596 3.104 6.548 6.548 0 0 0 3.744 3.735 9.37 9.37 0 0 0 3.106.639c1.369.061 1.803.08 5.274.08s3.916 0 5.274-.08a9.362 9.362 0 0 0 3.108-.595 6.555 6.555 0 0 0 3.743-3.737 9.35 9.35 0 0 0 .596-3.104c.061-1.365.08-1.798.08-5.265-.003-3.466-.003-3.906-.082-5.264zM15.99 22.531c-3.631 0-6.572-2.936-6.572-6.561s2.941-6.561 6.572-6.561c3.628 0 6.572 2.936 6.572 6.561s-2.944 6.561-6.572 6.561zm6.834-11.835a1.53 1.53 0 1 1 0-3.06 1.53 1.53 0 1 1 0 3.06z"/>
      <path d="M15.992 19.976a4.004 4.004 0 1 0 0-8.009 4.004 4.004 0 0 0 0 8.009z"/>
    </symbol>
    <symbol id="icon-twitter" viewBox="0 0 30 30">
      <path d="M27.938 7.063a10.937 10.937 0 0 1-3.143.862 5.464 5.464 0 0 0 2.397-3.006 10.924 10.924 0 0 1-3.467 1.32 5.447 5.447 0 0 0-9.309 4.968A15.448 15.448 0 0 1 3.695 6.1a5.447 5.447 0 0 0 1.687 7.283 5.427 5.427 0 0 1-2.47-.683c-.017.241-.026.483-.026.725a5.448 5.448 0 0 0 4.378 5.34 5.44 5.44 0 0 1-2.465.094 5.449 5.449 0 0 0 5.088 3.77 10.92 10.92 0 0 1-6.782 2.336c-.442 0-.874-.026-1.302-.076a15.392 15.392 0 0 0 8.33 2.436c9.974 0 15.42-8.257 15.42-15.421 0-.233-.004-.466-.014-.698a11.004 11.004 0 0 0 2.713-2.8z"/>
    </symbol>
    <symbol id="icon-youtube" viewBox="0 0 32 32">
      <path d="M24.24 6c-1.36-.08-4.16-.16-8.4-.16h-.56c-4.08 0-6.8.08-8.16.24-1.84.16-3.12.64-3.84 1.28-.64.56-1.12 1.6-1.28 2.96-.08.88-.16 2.72-.16 5.52v.4c0 2.64.08 4.48.24 5.36.24 1.28.64 2.24 1.44 2.8.8.64 2.16 1.04 4.08 1.2 1.36.08 4.16.16 8.4.16h.56c4.08 0 6.8-.08 8.16-.24 1.84-.16 3.12-.64 3.84-1.28.64-.56 1.12-1.6 1.28-2.96.08-.88.16-2.72.16-5.52v-.4c0-2.64-.08-4.48-.24-5.36-.24-1.28-.64-2.24-1.44-2.8-.8-.64-2.16-1.04-4.08-1.2zm-3.12 9.84-8.8 5.28V10.56l8.8 5.28z"/>
    </symbol>
    <symbol id="favorites-icon" viewBox="0 0 38 32">
      <path fill="#9bb537" style="fill: var(--color1, #9bb537)" d="M7.172 12.69h23.172v17.655h-23.172v-17.655z"></path>
      <path fill="#9bb537" style="fill: var(--color1, #9bb537)" d="M16.552 11.586c0 4.57-3.705 8.276-8.276 8.276s-8.276-3.705-8.276-8.276c0-4.57 3.705-8.276 8.276-8.276s8.276 3.705 8.276 8.276z"></path>
      <path fill="#9bb537" style="fill: var(--color1, #9bb537)" d="M27.034 8.276c0 4.57-3.705 8.276-8.276 8.276s-8.276-3.705-8.276-8.276c0-4.57 3.705-8.276 8.276-8.276s8.276 3.705 8.276 8.276z"></path>
      <path fill="#9bb537" style="fill: var(--color1, #9bb537)" d="M37.517 11.586c0 4.57-3.705 8.276-8.276 8.276s-8.276-3.705-8.276-8.276c0-4.57 3.705-8.276 8.276-8.276s8.276 3.705 8.276 8.276z"></path>
      <path fill="#f8f8f8" style="fill: var(--color2, #f8f8f8)" d="M7.172 29.241h23.172v2.081c0 0.374-0.324 0.678-0.724 0.678h-21.724c-0.4 0-0.724-0.303-0.724-0.678v-2.081zM14.345 10.463c0-0.599 0.371-1.084 0.828-1.084s0.828 0.486 0.828 1.084v5.005c0 0.599-0.371 1.084-0.828 1.084s-0.828-0.486-0.828-1.084v-5.005zM17.103 10.463c0-0.599 0.618-1.084 1.379-1.084s1.379 0.486 1.379 1.084v5.005c0 0.599-0.618 1.084-1.379 1.084s-1.379-0.486-1.379-1.084v-5.005zM20.966 10.463c0-0.599 0.494-1.084 1.103-1.084s1.103 0.486 1.103 1.084v5.005c0 0.599-0.494 1.084-1.103 1.084s-1.103-0.486-1.103-1.084v-5.005z"></path>
      <path fill="#050505" style="fill: var(--color3, #050505)" d="M28.184 3.131c0.263-0.029 0.567-0.045 0.875-0.045 0.001 0 0.002 0 0.003 0h-0c3.714 0 6.861 2.413 7.938 5.746-0.289 0.030-0.582 0.046-0.878 0.046-3.714 0-6.861-2.413-7.938-5.746z"></path>
    </symbol>
    <symbol id="icon-fork" viewBox="0 0 32 32">
      <path d="M31.435.749 31.25.565a1.928 1.928 0 0 0-2.729 0L17.664 11.422c-1.9 1.9-3.166 1.509-4.9 1.305-2.153-.253-3.673-.189-6.71 2.871l-5.49 5.489c-1.657 1.657.703 4.133 2.398 2.436l5.75-5.749a.942.942 0 0 1 1.33-.001l.177.178a.94.94 0 0 1 0 1.33l-5.775 5.776c-.947.946-.593 1.867.018 2.479.611.612 1.533.967 2.481.019l5.775-5.775a.94.94 0 0 1 1.33 0l.177.177a.941.941 0 0 1 0 1.331l-5.749 5.749c-1.696 1.696.779 4.057 2.437 2.398l5.49-5.489c3.06-3.037 3.123-4.557 2.869-6.711-.204-1.734-.594-2.999 1.307-4.899L31.437 3.479a1.93 1.93 0 0 0 0-2.729z"/>
    </symbol>
  </defs>
</svg>
